# xmcd CD database file
#
# Track frame offsets:
#	150
#	20836
#	57721
#	78020
#	104405
#	132268
#	163945
#
# Disc length: 2502 seconds
#
# Revision: 0
# Processed by: cddbd v1.4PL0 Copyright (c) Steve Scherf et al.
# Submitted via: CDex 1.50
#
DISCID=5d09c407
DTITLE=Mantra Girl - Mantra Girl
DYEAR=1900
DGENRE=New Age
TTITLE0=Dhan Dhan Ram Das Guru
TTITLE1=Long Eh Ong Kar's
TTITLE2=Adi Shakti
TTITLE3=Har
TTITLE4=Sa Ta Na Ma
TTITLE5=Wah Yantee
TTITLE6=Gobinday
EXTD=
EXTT0=
EXTT1=
EXTT2=
EXTT3=
EXTT4=
EXTT5=
EXTT6=
PLAYORDER=
